# xmcd CD database file
#
# Track frame offsets:
#	183
#	10298
#	20985
#	30315
#	40098
#	50885
#	61425
#	72770
#	84388
#	94100
#	105273
#	114383
#	123178
#	131518
#
# Disc length: 1873 seconds
#
# Revision: 3
# Processed by: cddbd v1.5.2PL0 Copyright (c) Steve Scherf et al.
# Submitted via: CDex 1.79
#
DISCID=b1074f0e
DTITLE=Guitar Junior - The Crawl
DYEAR=1993
DGENRE=Blues
TTITLE0=The Crawl
TTITLE1=Family Rules (Angel Child)
TTITLE2=I Got It Made (When I Married Shirley Mae)
TTITLE3=Tell Me Baby
TTITLE4=Now You Know!
TTITLE5=Roll Roll Roll
TTITLE6=Roll Roll Roll (Alt. Take)
TTITLE7=Broken Hearted Rollin' Tears
TTITLE8=Please
TTITLE9=Pick Me Up On Your Way Down
TTITLE10=Love Me, Love Me
TTITLE11=Knock Me Out Fine, Fine, Fine
TTITLE12=Love Me, Love, Mary Ann
TTITLE13=Oo Wee Baby
EXTD=YEAR: 1993
EXTT0=
EXTT1=
EXTT2=
EXTT3=
EXTT4=
EXTT5=
EXTT6=
EXTT7=
EXTT8=
EXTT9=
EXTT10=
EXTT11=
EXTT12=
EXTT13=
PLAYORDER=
